<?xml version="1.0" standalone="no"?><!DOCTYPE svg PUBLIC "-//W3C//DTD SVG 1.1//EN" "http://www.w3.org/Graphics/SVG/1.1/DTD/svg11.dtd"><svg t="1595081093859" class="icon" viewBox="0 0 1024 1024" version="1.1" xmlns="http://www.w3.org/2000/svg" p-id="1541" xmlns:xlink="http://www.w3.org/1999/xlink" width="200" height="200"><defs><style type="text/css"></style></defs><path d="M745 186V3H93v1021h836V186z" fill="#FF8278" p-id="1542"></path><path d="M929 186H745V2.7" fill="#FFB7B3" p-id="1543"></path><path d="M390.5 341.2h64.2V682h-64.2V341.2z m29.3 146.7h109c7.7 0 14.4-1.8 20.3-5.3s10.4-8.5 13.7-14.9 4.9-13.7 4.9-22c0-8.4-1.6-15.9-4.8-22.4s-7.7-11.5-13.6-15-12.7-5.3-20.5-5.3h-109v-61.9h107.3c21.2 0 40 4.3 56.1 13s28.7 20.9 37.6 36.7c8.9 15.8 13.4 34.1 13.4 54.8 0 20.8-4.5 39-13.4 54.7s-21.4 27.9-37.6 36.4c-16.2 8.6-34.9 12.9-56.1 12.9H419.8v-61.7z" fill="#FFFFFF" p-id="1544"></path></svg>